<?xml version="1.0" encoding="UTF-8" standalone="no"?><svg xmlns="http://www.w3.org/2000/svg" xmlns:xlink="http://www.w3.org/1999/xlink" contentScriptType="application/ecmascript" contentStyleType="text/css" height="67px" preserveAspectRatio="none" style="width:387px;height:67px;background:#FFFFFF;" version="1.1" viewBox="0 0 387 67" width="387px" zoomAndPan="magnify"><defs><filter height="300%" id="fbkm0xrfhavkz" width="300%" x="-1" y="-1"><feGaussianBlur result="blurOut" stdDeviation="2.0"/><feColorMatrix in="blurOut" result="blurOut2" type="matrix" values="0 0 0 0 0 0 0 0 0 0 0 0 0 0 0 0 0 0 .4 0"/><feOffset dx="4.0" dy="4.0" in="blurOut2" result="blurOut3"/><feBlend in="SourceGraphic" in2="blurOut3" mode="normal"/></filter></defs><g><!--MD5=[c1308b12d0885980e9c5433227aa3123]
entity mod.foo--><rect fill="#FEFECE" filter="url(#fbkm0xrfhavkz)" height="46.4883" style="stroke:#A80036;stroke-width:1.5;" width="98" x="7" y="7"/><rect fill="#FEFECE" height="10" style="stroke:#A80036;stroke-width:1.5;" width="15" x="85" y="12"/><rect fill="#FEFECE" height="2" style="stroke:#A80036;stroke-width:1.5;" width="4" x="83" y="14"/><rect fill="#FEFECE" height="2" style="stroke:#A80036;stroke-width:1.5;" width="4" x="83" y="18"/><text fill="#000000" font-family="sans-serif" font-size="14" lengthAdjust="spacing" textLength="58" x="22" y="40.5352">mod.foo</text><!--MD5=[13b1e5ae82728bca28df9446983699b8]
entity mod.bar--><rect fill="#FEFECE" filter="url(#fbkm0xrfhavkz)" height="46.4883" style="stroke:#A80036;stroke-width:1.5;" width="98" x="140" y="7"/><rect fill="#FEFECE" height="10" style="stroke:#A80036;stroke-width:1.5;" width="15" x="218" y="12"/><rect fill="#FEFECE" height="2" style="stroke:#A80036;stroke-width:1.5;" width="4" x="216" y="14"/><rect fill="#FEFECE" height="2" style="stroke:#A80036;stroke-width:1.5;" width="4" x="216" y="18"/><text fill="#000000" font-family="sans-serif" font-size="14" lengthAdjust="spacing" textLength="58" x="155" y="40.5352">mod.bar</text><!--MD5=[d586226f374b976b0019652386d2aa6a]
entity mod.baz--><rect fill="#FEFECE" filter="url(#fbkm0xrfhavkz)" height="46.4883" style="stroke:#A80036;stroke-width:1.5;" width="100" x="273" y="7"/><rect fill="#FEFECE" height="10" style="stroke:#A80036;stroke-width:1.5;" width="15" x="353" y="12"/><rect fill="#FEFECE" height="2" style="stroke:#A80036;stroke-width:1.5;" width="4" x="351" y="14"/><rect fill="#FEFECE" height="2" style="stroke:#A80036;stroke-width:1.5;" width="4" x="351" y="18"/><text fill="#000000" font-family="sans-serif" font-size="14" lengthAdjust="spacing" textLength="60" x="288" y="40.5352">mod.baz</text><!--MD5=[c8e058024749ef2cf0e82d1e8174abee]
link mod.foo to mod.bar--><path d="M105.1,30 C114.96,30 124.82,30 134.68,30 " fill="none" id="mod.foo-to-mod.bar" style="stroke:#A80036;stroke-width:1.0;"/><polygon fill="#A80036" points="139.84,30,130.84,26,134.84,30,130.84,34,139.84,30" style="stroke:#A80036;stroke-width:1.0;"/><!--MD5=[0b0480e106b575bd7c3474aac7e8a073]
link mod.bar to mod.baz--><path d="M238.2,30 C248.08,30 257.95,30 267.82,30 " fill="none" id="mod.bar-to-mod.baz" style="stroke:#A80036;stroke-width:1.0;"/><polygon fill="#A80036" points="272.98,30,263.98,26,267.98,30,263.98,34,272.98,30" style="stroke:#A80036;stroke-width:1.0;"/><!--MD5=[f2e19fb9d488d87ac3e76a9d263a6c54]
@startuml case2
[mod.foo] -> [mod.bar]
[mod.bar] -> [mod.baz]
@enduml

PlantUML version 1.2021.7(Sun May 23 21:40:07 JST 2021)
(GPL source distribution)
Java Runtime: OpenJDK Runtime Environment
JVM: OpenJDK 64-Bit Server VM
Default Encoding: UTF-8
Language: ja
Country: JP
--></g></svg>