<?xml version="1.0" encoding="UTF-8" standalone="no"?><svg xmlns="http://www.w3.org/2000/svg" xmlns:xlink="http://www.w3.org/1999/xlink" contentScriptType="application/ecmascript" contentStyleType="text/css" height="173px" preserveAspectRatio="none" style="width:254px;height:173px;background:#FFFFFF;" version="1.1" viewBox="0 0 254 173" width="254px" zoomAndPan="magnify"><defs><filter height="300%" id="fopmgaadp1ib4" width="300%" x="-1" y="-1"><feGaussianBlur result="blurOut" stdDeviation="2.0"/><feColorMatrix in="blurOut" result="blurOut2" type="matrix" values="0 0 0 0 0 0 0 0 0 0 0 0 0 0 0 0 0 0 .4 0"/><feOffset dx="4.0" dy="4.0" in="blurOut2" result="blurOut3"/><feBlend in="SourceGraphic" in2="blurOut3" mode="normal"/></filter></defs><g><!--MD5=[c1308b12d0885980e9c5433227aa3123]
entity mod.foo--><rect fill="#FEFECE" filter="url(#fopmgaadp1ib4)" height="46.4883" style="stroke:#A80036;stroke-width:1.5;" width="98" x="74" y="7"/><rect fill="#FEFECE" height="10" style="stroke:#A80036;stroke-width:1.5;" width="15" x="152" y="12"/><rect fill="#FEFECE" height="2" style="stroke:#A80036;stroke-width:1.5;" width="4" x="150" y="14"/><rect fill="#FEFECE" height="2" style="stroke:#A80036;stroke-width:1.5;" width="4" x="150" y="18"/><text fill="#000000" font-family="sans-serif" font-size="14" lengthAdjust="spacing" textLength="58" x="89" y="40.5352">mod.foo</text><!--MD5=[13b1e5ae82728bca28df9446983699b8]
entity mod.bar--><rect fill="#FEFECE" filter="url(#fopmgaadp1ib4)" height="46.4883" style="stroke:#A80036;stroke-width:1.5;" width="98" x="7" y="113"/><rect fill="#FEFECE" height="10" style="stroke:#A80036;stroke-width:1.5;" width="15" x="85" y="118"/><rect fill="#FEFECE" height="2" style="stroke:#A80036;stroke-width:1.5;" width="4" x="83" y="120"/><rect fill="#FEFECE" height="2" style="stroke:#A80036;stroke-width:1.5;" width="4" x="83" y="124"/><text fill="#000000" font-family="sans-serif" font-size="14" lengthAdjust="spacing" textLength="58" x="22" y="146.5352">mod.bar</text><!--MD5=[d586226f374b976b0019652386d2aa6a]
entity mod.baz--><rect fill="#FEFECE" filter="url(#fopmgaadp1ib4)" height="46.4883" style="stroke:#A80036;stroke-width:1.5;" width="100" x="140" y="113"/><rect fill="#FEFECE" height="10" style="stroke:#A80036;stroke-width:1.5;" width="15" x="220" y="118"/><rect fill="#FEFECE" height="2" style="stroke:#A80036;stroke-width:1.5;" width="4" x="218" y="120"/><rect fill="#FEFECE" height="2" style="stroke:#A80036;stroke-width:1.5;" width="4" x="218" y="124"/><text fill="#000000" font-family="sans-serif" font-size="14" lengthAdjust="spacing" textLength="60" x="155" y="146.5352">mod.baz</text><!--MD5=[c8e058024749ef2cf0e82d1e8174abee]
link mod.foo to mod.bar--><path d="M108.79,53.06 C98.31,69.33 84.01,91.53 72.93,108.72 " fill="none" id="mod.foo-to-mod.bar" style="stroke:#A80036;stroke-width:1.0;"/><polygon fill="#A80036" points="70.19,112.98,78.4215,107.5724,72.8938,108.7741,71.6921,103.2464,70.19,112.98" style="stroke:#A80036;stroke-width:1.0;"/><!--MD5=[23d6ce74ccd521441ac211dfe0ef619b]
link mod.foo to mod.baz--><path d="M137.21,53.06 C147.69,69.33 161.99,91.53 173.07,108.72 " fill="none" id="mod.foo-to-mod.baz" style="stroke:#A80036;stroke-width:1.0;"/><polygon fill="#A80036" points="175.81,112.98,174.3079,103.2464,173.1062,108.7741,167.5785,107.5724,175.81,112.98" style="stroke:#A80036;stroke-width:1.0;"/><!--MD5=[c4fb3adc44c8fda73559e1390c932f43]
@startuml case4
[mod.foo] - -> [mod.bar]
[mod.foo] - -> [mod.baz]
@enduml

PlantUML version 1.2021.7(Sun May 23 21:40:07 JST 2021)
(GPL source distribution)
Java Runtime: OpenJDK Runtime Environment
JVM: OpenJDK 64-Bit Server VM
Default Encoding: UTF-8
Language: ja
Country: JP
--></g></svg>